<svg width="54" height="48" viewBox="0 0 54 48" fill="none" xmlns="http://www.w3.org/2000/svg">
<path d="M9 8.34375L27 3.84375V45H9V8.34375ZM19.5 24C19.5 25.6875 20.4375 27 21.75 27C22.9688 27 24 25.6875 24 24C24 22.4062 22.9688 21 21.75 21C20.4375 21 19.5 22.4062 19.5 24Z" fill="#7D703C"/>
<path opacity="0.2" d="M30 0V3.09375V45V48H27H9H7.5H6H1.5H0V45H1.5H6V6L27 0.75L30 0ZM27 3.84375L9 8.34375V45H27V3.84375ZM21.75 27C20.4375 27 19.5 25.6875 19.5 24C19.5 22.4062 20.4375 21 21.75 21C22.9688 21 24 22.4062 24 24C24 25.6875 22.9688 27 21.75 27ZM46.5 6H48V7.5V45H52.5H54V48H52.5H46.5H45V46.5V9H33V6H46.5Z" fill="#7D703C"/>
</svg>
