<svg width="48" height="48" viewBox="0 0 48 48" fill="none" xmlns="http://www.w3.org/2000/svg">
<path d="M3 26.9062V26.8125L5.25 24.5625L6.84375 26.1562L11.3438 30.6562L12.375 31.7812L13.4062 30.6562L14.5312 29.625L14.9062 29.1562V28.5V6H19.4062V22.5V24H22.4062V22.5V4.5V3H26.9062V4.5C26.9062 5.0625 26.9062 5.53125 26.9062 6V7.5V22.5V24H29.9062V22.5V7.5V6H34.4062V10.5V12V22.5V24H37.4062V22.5V12H41.9062V31.5C41.9062 39 35.9062 45 28.4062 45H27.6562C22.3125 45 17.1562 42.9375 13.3125 39.0938L3.65625 29.3438L3 28.6875V26.9062Z" fill="#7D703C"/>
<path opacity="0.2" d="M21 0H28.5H30V1.5V3H36H37.5V4.5V9H43.5H45V10.5V31.5C45 40.6875 37.5938 48 28.5 48H27.6562C21.4688 48 15.5625 45.5625 11.25 41.25L1.5 31.5L0.375 30.375L0 30V29.3438V26.25V25.5938L0.375 25.2188L4.125 21.4688L5.25 20.3438L6.28125 21.4688L8.90625 24.0938L12 27.0938V4.5V3H13.5H19.5V1.5V0H21ZM34.5 12V10.5V6H30V7.5V22.5V24H27V22.5V7.5V6V4.5V3H22.5V4.5V22.5V24H19.5V22.5V6H15V28.5V29.1562L14.5312 29.625L13.4062 30.6562L12.375 31.7812L11.3438 30.75L6.84375 26.25L5.25 24.6562L3 26.9062V28.6875L3.65625 29.3438L13.3125 39.0938C17.1562 42.9375 22.3125 45 27.6562 45H28.5C35.9062 45 42 39 42 31.5V12H37.5V22.5V24H34.5V22.5V12Z" fill="#7D703C"/>
</svg>
