<svg width="49" height="48" viewBox="0 0 49 48" fill="none" xmlns="http://www.w3.org/2000/svg">
<path d="M3.5 37.4062L18.6875 22.125L19.3438 21.4688L19.0625 20.625C18.6875 19.3125 18.5 18 18.5 16.5C18.5 9.09375 24.5 3 32 3C39.4062 3 45.5 9.09375 45.5 16.5C45.5 24 39.4062 30 32 30C30.875 30 29.9375 29.9062 28.9062 29.7188L28.1562 29.5312L27.5 30.0938L24.5938 33H20H18.5V34.5V39H14H12.5V40.5V45H3.5V37.4062ZM37.25 13.5C37.25 12.2812 36.2188 11.25 35 11.25C33.6875 11.25 32.75 12.2812 32.75 13.5C32.75 14.8125 33.6875 15.75 35 15.75C36.2188 15.75 37.25 14.8125 37.25 13.5Z" fill="#7D703C"/>
<path opacity="0.2" d="M18.5 16.5C18.5 18 18.6875 19.3125 19.0625 20.625L19.3438 21.4688L18.6875 22.125L3.5 37.4062V45H12.5V40.5V39H14H18.5V34.5V33H20H24.5938L27.5 30.0938L28.1562 29.5312L28.9062 29.7188C29.9375 29.9062 30.875 30 32 30C39.4062 30 45.5 24 45.5 16.5C45.5 9.09375 39.4062 3 32 3C24.5 3 18.5 9.09375 18.5 16.5ZM32 0C41.0938 0 48.5 7.40625 48.5 16.5C48.5 25.6875 41.0938 33 32 33C30.9688 33 30.0312 33 29.0938 32.8125L26.2812 35.625L25.8125 36H25.25H21.5V40.5V42H20H15.5V46.5V48H14H2H0.5V46.5V36.75V36.1875L0.875 35.7188L15.9688 20.625C15.5938 19.3125 15.5 18 15.5 16.5C15.5 7.40625 22.8125 0 32 0ZM35 15.75C33.6875 15.75 32.75 14.8125 32.75 13.5C32.75 12.2812 33.6875 11.25 35 11.25C36.2188 11.25 37.25 12.2812 37.25 13.5C37.25 14.8125 36.2188 15.75 35 15.75Z" fill="#7D703C"/>
</svg>
