<svg width="57" height="57" viewBox="0 0 57 57" fill="none" xmlns="http://www.w3.org/2000/svg">
<rect width="57" height="57" rx="16" fill="#1C1B17"/>
<path d="M42.931 35.846C42.9416 35.8471 42.9523 35.8483 42.9629 35.8498L42.9662 35.853C42.9774 35.8546 42.9903 35.8562 43 35.8562V41H39.092V40.5006C39.6574 40.0637 40.0215 39.3796 40.0215 38.612C40.0215 38.241 39.9377 37.8909 39.7863 37.5778C39.6236 37.2421 39.3852 36.9498 39.092 36.7234C38.7786 36.4801 38.4012 36.3387 38.0223 36.1967C37.7236 36.0848 37.424 35.9725 37.1541 35.8096C36.5597 35.4515 36.0362 34.9778 35.6367 34.4093C35.3129 33.9468 35.0648 33.4248 34.915 32.8644C34.8216 32.5207 34.7652 32.161 34.7491 31.7916H30.6075L27.4985 28.6922L27.1135 29.076L27.1183 29.084L28.8565 32.0357L26.242 34.6421C27.3406 35.7358 27.3406 37.5119 26.242 38.6072L25.5783 39.2688L23.3231 37.0205C22.1681 35.8707 22.1681 34.0046 23.3231 32.8531H20.6184V40.9984H16V40.401C16 40.401 16.7088 39.8421 16.8683 39.476C16.9923 39.1901 17.0616 38.8754 17.0664 38.5445V24.4943C17.06 23.0168 17.5609 21.5747 18.4582 20.4007C18.5468 20.2851 18.6402 20.1727 18.7385 20.0619C18.7533 20.044 18.7687 20.0268 18.784 20.0099C18.792 20.0009 18.8 19.9921 18.8078 19.9832L18.1634 19.3408C17.8783 18.8558 17.7156 18.2905 17.7156 17.6883C17.7156 16.5754 18.273 15.591 19.1251 15C19.1267 15.8544 19.4586 16.6332 19.9982 17.213C20.2253 17.4571 20.4895 17.6674 20.7827 17.8345C21.0098 17.9629 21.2515 18.0657 21.5076 18.138C21.4029 18.1878 21.303 18.2408 21.2032 18.2986C19.5456 19.2509 18.6435 21.2439 19.0011 23.1067C19.0252 23.2272 19.0542 23.3492 19.0865 23.4665L20.3107 22.2476L20.4847 22.421C19.697 23.9611 19.8758 25.8962 20.9261 27.2645L21.7396 26.4551L22.5273 25.6682L23.1346 25.0644L23.5196 24.6805L24.7084 25.8657C24.71 25.8673 24.7117 25.8705 24.7117 25.8705L24.8744 26.0327C24.876 26.0327 24.8776 26.0343 24.8792 26.0359C25.0854 26.2046 25.3512 26.3057 25.6379 26.3057C25.9246 26.3057 26.1888 26.2046 26.395 26.0392L28.1638 24.2759L27.4115 22.193L28.4344 21.1668H36.339C36.3794 21.1699 36.4195 21.1723 36.4593 21.1747C36.5004 21.1771 36.5414 21.1796 36.5822 21.1828C37.6728 21.2631 38.6716 21.8814 39.2773 22.7823C39.3014 22.8193 39.4673 23.293 39.4673 23.293H42.0786C42.0786 24.4091 41.5454 25.4048 40.7142 26.044C40.4387 26.256 40.131 26.4278 39.7992 26.5531V32.3794C39.7992 32.4565 39.8024 32.5335 39.8072 32.6106C39.92 34.2053 41.1974 35.5977 42.8083 35.8305C42.8323 35.833 42.8553 35.8365 42.8781 35.8395C42.8844 35.8403 42.8907 35.8411 42.8969 35.8418C42.9079 35.8434 42.9194 35.8447 42.931 35.846Z" fill="#CABE90"/>
<path d="M26.5513 17.5117C26.5513 17.6659 26.5416 17.8168 26.519 17.9646L26.0277 18.4544C26.0277 18.4544 26.0148 18.4464 26.0084 18.4415C25.9765 18.4203 25.9445 18.4 25.912 18.3792L25.8763 18.3564C25.8312 18.3275 25.7861 18.3018 25.741 18.2761C25.7314 18.2713 25.7221 18.2661 25.7128 18.2609C25.7036 18.2557 25.6943 18.2504 25.6846 18.2456C25.6057 18.2006 25.5235 18.1589 25.4414 18.1203L25.3689 18.0866C25.3576 18.0818 25.3463 18.0768 25.335 18.0718C25.3125 18.0618 25.2899 18.0518 25.2674 18.0433C25.0966 17.971 24.9194 17.9084 24.739 17.8586C24.7181 17.8522 24.6971 17.8457 24.6762 17.8409H24.6746C24.5151 17.7976 24.3508 17.7638 24.1849 17.7381C24.2084 17.7241 24.231 17.7083 24.2534 17.6927C24.2618 17.6869 24.27 17.6812 24.2783 17.6755C25.0531 17.1375 25.5847 16.2767 25.6749 15.2875C25.9391 15.5717 26.1534 15.9026 26.3032 16.2687C26.4611 16.6525 26.548 17.0717 26.548 17.5117H26.5513Z" fill="#CABE90"/>
<path d="M33.7777 32.8531H29.7183C29.8649 33.4441 30.1323 33.9917 30.4948 34.4751C30.6881 34.7349 30.9231 34.9369 31.159 35.1396C31.33 35.2866 31.5014 35.434 31.6578 35.6041C32.067 36.0489 32.3392 36.6222 32.3392 37.21V38.5028C32.3392 39.0424 32.1411 39.5418 31.8092 39.9369C31.6578 40.1199 31.4774 40.2805 31.2728 40.4138V40.9968H35.5352V35.9943C34.6653 35.1721 34.0371 34.0833 33.7777 32.8515V32.8531Z" fill="#CABE90"/>
<path d="M24.7938 22.2283H26.1115C26.1115 21.6421 25.6347 21.1652 25.0451 21.1652H23.8112V21.2487C23.8112 21.7883 24.2509 22.2267 24.7922 22.2267L24.7938 22.2283Z" fill="#CABE90"/>
</svg>
