<svg width="165" height="50" viewBox="0 0 165 50" fill="none" xmlns="http://www.w3.org/2000/svg">
<path d="M50.8925 38.9807C50.9122 38.9829 50.9322 38.985 50.9522 38.9879L50.9582 38.9939C50.9793 38.9969 51.0034 38.9999 51.0215 38.9999V48.6185H43.7087V47.6846C44.7667 46.8678 45.448 45.5885 45.448 44.153C45.448 43.4594 45.2912 42.8047 45.0079 42.2191C44.7034 41.5915 44.2573 41.0449 43.7087 40.6215C43.1221 40.1665 42.4159 39.9021 41.707 39.6366C41.148 39.4273 40.5874 39.2173 40.0824 38.9128C38.9701 38.2431 37.9904 37.3573 37.2428 36.2942C36.6369 35.4293 36.1727 34.4534 35.8924 33.4053C35.7175 32.7627 35.612 32.09 35.5819 31.3993H27.8319L22.0142 25.6035L21.2937 26.3213L21.3028 26.3363L24.5553 31.8558L19.663 36.7296C21.7188 38.7747 21.7188 42.096 19.663 44.144L18.421 45.3813L14.2009 41.1771C12.0396 39.0269 12.0396 35.5375 14.2009 33.3843H9.13978V48.6155H0.497559V47.4984C0.497559 47.4984 1.82388 46.4533 2.12231 45.7687C2.35441 45.2341 2.48403 44.6455 2.49308 44.0269V17.7537C2.48102 14.991 3.41849 12.2943 5.0975 10.0991C5.26329 9.88286 5.43812 9.67265 5.622 9.46544C5.64963 9.43202 5.67855 9.39988 5.70708 9.36819C5.72212 9.35147 5.73705 9.33488 5.75162 9.3183L4.54587 8.1171C4.01232 7.21019 3.70787 6.15314 3.70787 5.02701C3.70787 2.94594 4.75084 1.1051 6.34545 0C6.34846 1.59759 6.96943 3.05405 7.97924 4.13813C8.40427 4.59458 8.89863 4.98798 9.44724 5.30029C9.87227 5.54053 10.3244 5.73272 10.8037 5.86785C10.6078 5.96095 10.4209 6.06005 10.234 6.16815C7.1322 7.94893 5.44415 11.6756 6.11334 15.1591C6.15856 15.3843 6.21282 15.6126 6.27311 15.8318L8.56403 13.5525L8.88958 13.8768C7.41555 16.7567 7.75015 20.3753 9.71552 22.9339L11.2378 21.4204L12.7118 19.9489L13.8482 18.8198L14.5687 18.1021L16.7933 20.3183C16.7963 20.3213 16.7993 20.3273 16.7993 20.3273L17.1038 20.6306C17.1068 20.6306 17.1098 20.6336 17.1128 20.6366C17.4986 20.9519 17.996 21.1411 18.5326 21.1411C19.0691 21.1411 19.5635 20.9519 19.9493 20.6426L23.2591 17.3453L21.8514 13.4504L23.7655 11.5315H38.5571C38.6327 11.5374 38.7077 11.5419 38.7822 11.5463C38.8591 11.5509 38.9358 11.5554 39.0123 11.5615C41.053 11.7117 42.9219 12.8678 44.0553 14.5525C44.1005 14.6216 44.411 15.5075 44.411 15.5075H49.2973C49.2973 17.5946 48.2995 19.4564 46.7441 20.6516C46.2287 21.048 45.6529 21.3693 45.032 21.6035V32.4984C45.032 32.6426 45.038 32.7867 45.047 32.9308C45.258 35.9128 47.6484 38.5164 50.6628 38.9519C50.7078 38.9566 50.7508 38.9631 50.7935 38.9686C50.8052 38.9701 50.8169 38.9716 50.8286 38.9729C50.8492 38.976 50.8707 38.9784 50.8925 38.9807Z" fill="#CABE90"/>
<path d="M20.2417 4.69673C20.2417 4.98502 20.2236 5.2673 20.1814 5.54358L19.262 6.45949C19.262 6.45949 19.2379 6.44448 19.2259 6.43547C19.1661 6.39579 19.1064 6.35772 19.0454 6.3189L18.9787 6.27631C18.8943 6.22227 18.8099 6.17423 18.7255 6.12619C18.7075 6.11719 18.6901 6.10741 18.6728 6.09766C18.6554 6.0879 18.638 6.0781 18.62 6.0691C18.4723 5.98502 18.3185 5.90694 18.1648 5.83487L18.0291 5.77181C18.008 5.76279 17.9869 5.75345 17.9658 5.74411C17.9237 5.72543 17.8814 5.70673 17.8392 5.69072C17.5197 5.55559 17.1881 5.43847 16.8505 5.34538C16.8113 5.33337 16.7722 5.32136 16.733 5.31235H16.7299C16.4315 5.23127 16.1241 5.1682 15.8136 5.12015C15.8576 5.09387 15.8999 5.06438 15.9419 5.03519C15.9574 5.02437 15.9729 5.0136 15.9884 5.00304C17.4383 3.99703 18.4331 2.38743 18.6019 0.537583C19.0962 1.06911 19.4971 1.68773 19.7775 2.37241C20.0729 3.09013 20.2357 3.87391 20.2357 4.69673H20.2417Z" fill="#CABE90"/>
<path d="M33.7643 33.3843H26.1681C26.4424 34.4894 26.9428 35.5134 27.621 36.4173C27.9827 36.903 28.4225 37.2808 28.8639 37.6599C29.1839 37.9348 29.5047 38.2104 29.7974 38.5284C30.563 39.3603 31.0724 40.4323 31.0724 41.5314V43.9488C31.0724 44.9578 30.7017 45.8918 30.0807 46.6305C29.7974 46.9729 29.4598 47.2732 29.0769 47.5224V48.6125H37.053V39.2582C35.4252 37.7206 34.2496 35.6846 33.7643 33.3813V33.3843Z" fill="#CABE90"/>
<path d="M16.9531 13.5165H19.4188C19.4188 12.4204 18.5266 11.5285 17.4233 11.5285H15.1143V11.6846C15.1143 12.6936 15.9372 13.5135 16.95 13.5135L16.9531 13.5165Z" fill="#CABE90"/>
<path d="M72.912 18.3511V11.4502H81.7472C81.7472 13.3571 80.9755 15.0778 79.7185 16.3301C78.4675 17.5763 76.7343 18.3511 74.8262 18.3511H72.912Z" fill="#CABE90"/>
<path d="M67.9533 48.3961V11.4502H59.1242V45.2039C59.1242 46.0568 58.7866 46.8375 58.2349 47.4081V48.3961H67.9533Z" fill="#ECEBE8"/>
<path d="M81.744 48.396V21.5373H72.9089V45.2039C72.9089 46.0567 72.5713 46.8375 72.0197 47.4081V48.396H81.744Z" fill="#ECEBE8"/>
<path d="M110.773 31.264V48.3961H101.048V47.4081C101.6 46.8376 101.937 46.0568 101.937 45.2039V31.3631C101.937 29.204 100.801 28.225 99.1974 28.225C98.2207 28.225 96.7708 28.6874 95.5349 29.7745V48.3961H85.8105V47.4081C86.3622 46.8376 86.6998 46.0568 86.6998 45.2039V21.5373H94.6577V24.213C97.5485 21.9998 100.129 20.9217 103.125 20.9217C106.634 20.9217 108.961 22.3661 110.046 24.9337C110.565 26.1709 110.77 27.6634 110.77 31.264H110.773Z" fill="#ECEBE8"/>
<path d="M138.255 38.5672H129.227L129.224 38.5612V39.5492L129.233 39.5612C129.844 40.2009 129.603 41.2639 128.805 41.6423C128.265 41.8975 127.526 42.1138 126.577 42.1138C125.516 42.1138 124.557 41.7804 123.813 40.9937C122.815 39.9486 122.191 38.0867 122.191 35.1198C122.191 29.9757 123.894 27.8105 126.426 27.7564C128.44 27.7114 129.676 28.7384 130.607 31.0027H138.252C136.877 23.7595 131.539 20.9186 126.221 20.9186C118.631 20.9186 113.513 26.27 113.513 35.0177C113.513 43.7654 118.113 49.0177 125.703 49.0177C126.893 49.0177 128.084 48.8825 129.227 48.6123C133.594 47.5852 137.344 44.4861 138.255 38.5672Z" fill="#ECEBE8"/>
<path fill-rule="evenodd" clip-rule="evenodd" d="M152.461 20.9217C144.871 20.9217 139.753 26.1199 139.753 35.0208C139.753 43.9216 144.353 49.0207 151.943 49.0207C153.134 49.0207 154.321 48.8886 155.467 48.6153C159.835 47.5883 163.581 44.4892 164.495 38.5703H155.467V39.5583L155.476 39.5673C156.088 40.2069 155.847 41.267 155.048 41.6484C154.508 41.9036 153.77 42.1198 152.82 42.1198C148.811 42.1198 148.522 37.9427 148.522 35.6033H164.492C164.492 24.1499 158.27 20.9217 152.461 20.9217ZM148.865 31.249C149.381 28.8847 150.948 27.7388 152.709 27.5883C155.265 27.3679 156.564 28.7189 156.826 31.249H148.865Z" fill="#ECEBE8"/>
</svg>
