<svg width="203" height="203" viewBox="0 0 203 203" fill="none" xmlns="http://www.w3.org/2000/svg">
<path d="M7.75 7.5H15.25V15H7.75V7.5ZM15.25 7.5H22.75V15H15.25V7.5ZM22.75 7.5H30.25V15H22.75V7.5ZM30.25 7.5H37.75V15H30.25V7.5ZM37.75 7.5H45.25V15H37.75V7.5ZM45.25 7.5H52.75V15H45.25V7.5ZM52.75 7.5H60.25V15H52.75V7.5ZM67.75 7.5H75.25V15H67.75V7.5ZM105.25 7.5H112.75V15H105.25V7.5ZM112.75 7.5H120.25V15H112.75V7.5ZM120.25 7.5H127.75V15H120.25V7.5ZM127.75 7.5H135.25V15H127.75V7.5ZM142.75 7.5H150.25V15H142.75V7.5ZM150.25 7.5H157.75V15H150.25V7.5ZM157.75 7.5H165.25V15H157.75V7.5ZM165.25 7.5H172.75V15H165.25V7.5ZM172.75 7.5H180.25V15H172.75V7.5ZM180.25 7.5H187.75V15H180.25V7.5ZM187.75 7.5H195.25V15H187.75V7.5ZM7.75 15H15.25V22.5H7.75V15ZM52.75 15H60.25V22.5H52.75V15ZM67.75 15H75.25V22.5H67.75V15ZM90.25 15H97.75V22.5H90.25V15ZM97.75 15H105.25V22.5H97.75V15ZM105.25 15H112.75V22.5H105.25V15ZM142.75 15H150.25V22.5H142.75V15ZM187.75 15H195.25V22.5H187.75V15ZM7.75 22.5H15.25V30H7.75V22.5ZM22.75 22.5H30.25V30H22.75V22.5ZM30.25 22.5H37.75V30H30.25V22.5ZM37.75 22.5H45.25V30H37.75V22.5ZM52.75 22.5H60.25V30H52.75V22.5ZM67.75 22.5H75.25V30H67.75V22.5ZM75.25 22.5H82.75V30H75.25V22.5ZM97.75 22.5H105.25V30H97.75V22.5ZM112.75 22.5H120.25V30H112.75V22.5ZM120.25 22.5H127.75V30H120.25V22.5ZM142.75 22.5H150.25V30H142.75V22.5ZM157.75 22.5H165.25V30H157.75V22.5ZM165.25 22.5H172.75V30H165.25V22.5ZM172.75 22.5H180.25V30H172.75V22.5ZM187.75 22.5H195.25V30H187.75V22.5ZM7.75 30H15.25V37.5H7.75V30ZM22.75 30H30.25V37.5H22.75V30ZM30.25 30H37.75V37.5H30.25V30ZM37.75 30H45.25V37.5H37.75V30ZM52.75 30H60.25V37.5H52.75V30ZM67.75 30H75.25V37.5H67.75V30ZM75.25 30H82.75V37.5H75.25V30ZM82.75 30H90.25V37.5H82.75V30ZM97.75 30H105.25V37.5H97.75V30ZM105.25 30H112.75V37.5H105.25V30ZM127.75 30H135.25V37.5H127.75V30ZM142.75 30H150.25V37.5H142.75V30ZM157.75 30H165.25V37.5H157.75V30ZM165.25 30H172.75V37.5H165.25V30ZM172.75 30H180.25V37.5H172.75V30ZM187.75 30H195.25V37.5H187.75V30ZM7.75 37.5H15.25V45H7.75V37.5ZM22.75 37.5H30.25V45H22.75V37.5ZM30.25 37.5H37.75V45H30.25V37.5ZM37.75 37.5H45.25V45H37.75V37.5ZM52.75 37.5H60.25V45H52.75V37.5ZM75.25 37.5H82.75V45H75.25V37.5ZM82.75 37.5H90.25V45H82.75V37.5ZM97.75 37.5H105.25V45H97.75V37.5ZM112.75 37.5H120.25V45H112.75V37.5ZM120.25 37.5H127.75V45H120.25V37.5ZM127.75 37.5H135.25V45H127.75V37.5ZM142.75 37.5H150.25V45H142.75V37.5ZM157.75 37.5H165.25V45H157.75V37.5ZM165.25 37.5H172.75V45H165.25V37.5ZM172.75 37.5H180.25V45H172.75V37.5ZM187.75 37.5H195.25V45H187.75V37.5ZM7.75 45H15.25V52.5H7.75V45ZM52.75 45H60.25V52.5H52.75V45ZM67.75 45H75.25V52.5H67.75V45ZM75.25 45H82.75V52.5H75.25V45ZM82.75 45H90.25V52.5H82.75V45ZM127.75 45H135.25V52.5H127.75V45ZM142.75 45H150.25V52.5H142.75V45ZM187.75 45H195.25V52.5H187.75V45ZM7.75 52.5H15.25V60H7.75V52.5ZM15.25 52.5H22.75V60H15.25V52.5ZM22.75 52.5H30.25V60H22.75V52.5ZM30.25 52.5H37.75V60H30.25V52.5ZM37.75 52.5H45.25V60H37.75V52.5ZM45.25 52.5H52.75V60H45.25V52.5ZM52.75 52.5H60.25V60H52.75V52.5ZM67.75 52.5H75.25V60H67.75V52.5ZM82.75 52.5H90.25V60H82.75V52.5ZM97.75 52.5H105.25V60H97.75V52.5ZM112.75 52.5H120.25V60H112.75V52.5ZM127.75 52.5H135.25V60H127.75V52.5ZM142.75 52.5H150.25V60H142.75V52.5ZM150.25 52.5H157.75V60H150.25V52.5ZM157.75 52.5H165.25V60H157.75V52.5ZM165.25 52.5H172.75V60H165.25V52.5ZM172.75 52.5H180.25V60H172.75V52.5ZM180.25 52.5H187.75V60H180.25V52.5ZM187.75 52.5H195.25V60H187.75V52.5ZM82.75 60H90.25V67.5H82.75V60ZM90.25 60H97.75V67.5H90.25V60ZM7.75 67.5H15.25V75H7.75V67.5ZM15.25 67.5H22.75V75H15.25V67.5ZM37.75 67.5H45.25V75H37.75V67.5ZM45.25 67.5H52.75V75H45.25V67.5ZM52.75 67.5H60.25V75H52.75V67.5ZM82.75 67.5H90.25V75H82.75V67.5ZM97.75 67.5H105.25V75H97.75V67.5ZM150.25 67.5H157.75V75H150.25V67.5ZM165.25 67.5H172.75V75H165.25V67.5ZM172.75 67.5H180.25V75H172.75V67.5ZM180.25 67.5H187.75V75H180.25V67.5ZM187.75 67.5H195.25V75H187.75V67.5ZM7.75 75H15.25V82.5H7.75V75ZM30.25 75H37.75V82.5H30.25V75ZM37.75 75H45.25V82.5H37.75V75ZM45.25 75H52.75V82.5H45.25V75ZM67.75 75H75.25V82.5H67.75V75ZM105.25 75H112.75V82.5H105.25V75ZM112.75 75H120.25V82.5H112.75V75ZM120.25 75H127.75V82.5H120.25V75ZM127.75 75H135.25V82.5H127.75V75ZM135.25 75H142.75V82.5H135.25V75ZM157.75 75H165.25V82.5H157.75V75ZM165.25 75H172.75V82.5H165.25V75ZM180.25 75H187.75V82.5H180.25V75ZM30.25 82.5H37.75V90H30.25V82.5ZM52.75 82.5H60.25V90H52.75V82.5ZM60.25 82.5H67.75V90H60.25V82.5ZM67.75 82.5H75.25V90H67.75V82.5ZM75.25 82.5H82.75V90H75.25V82.5ZM82.75 82.5H90.25V90H82.75V82.5ZM105.25 82.5H112.75V90H105.25V82.5ZM120.25 82.5H127.75V90H120.25V82.5ZM150.25 82.5H157.75V90H150.25V82.5ZM157.75 82.5H165.25V90H157.75V82.5ZM165.25 82.5H172.75V90H165.25V82.5ZM172.75 82.5H180.25V90H172.75V82.5ZM15.25 90H22.75V97.5H15.25V90ZM30.25 90H37.75V97.5H30.25V90ZM45.25 90H52.75V97.5H45.25V90ZM60.25 90H67.75V97.5H60.25V90ZM67.75 90H75.25V97.5H67.75V90ZM75.25 90H82.75V97.5H75.25V90ZM97.75 90H105.25V97.5H97.75V90ZM112.75 90H120.25V97.5H112.75V90ZM142.75 90H150.25V97.5H142.75V90ZM150.25 90H157.75V97.5H150.25V90ZM172.75 90H180.25V97.5H172.75V90ZM180.25 90H187.75V97.5H180.25V90ZM30.25 97.5H37.75V105H30.25V97.5ZM37.75 97.5H45.25V105H37.75V97.5ZM52.75 97.5H60.25V105H52.75V97.5ZM90.25 97.5H97.75V105H90.25V97.5ZM120.25 97.5H127.75V105H120.25V97.5ZM135.25 97.5H142.75V105H135.25V97.5ZM142.75 97.5H150.25V105H142.75V97.5ZM165.25 97.5H172.75V105H165.25V97.5ZM172.75 97.5H180.25V105H172.75V97.5ZM180.25 97.5H187.75V105H180.25V97.5ZM187.75 97.5H195.25V105H187.75V97.5ZM7.75 105H15.25V112.5H7.75V105ZM15.25 105H22.75V112.5H15.25V105ZM30.25 105H37.75V112.5H30.25V105ZM45.25 105H52.75V112.5H45.25V105ZM60.25 105H67.75V112.5H60.25V105ZM67.75 105H75.25V112.5H67.75V105ZM82.75 105H90.25V112.5H82.75V105ZM97.75 105H105.25V112.5H97.75V105ZM112.75 105H120.25V112.5H112.75V105ZM120.25 105H127.75V112.5H120.25V105ZM127.75 105H135.25V112.5H127.75V105ZM135.25 105H142.75V112.5H135.25V105ZM157.75 105H165.25V112.5H157.75V105ZM180.25 105H187.75V112.5H180.25V105ZM22.75 112.5H30.25V120H22.75V112.5ZM37.75 112.5H45.25V120H37.75V112.5ZM45.25 112.5H52.75V120H45.25V112.5ZM52.75 112.5H60.25V120H52.75V112.5ZM90.25 112.5H97.75V120H90.25V112.5ZM97.75 112.5H105.25V120H97.75V112.5ZM105.25 112.5H112.75V120H105.25V112.5ZM112.75 112.5H120.25V120H112.75V112.5ZM120.25 112.5H127.75V120H120.25V112.5ZM150.25 112.5H157.75V120H150.25V112.5ZM157.75 112.5H165.25V120H157.75V112.5ZM165.25 112.5H172.75V120H165.25V112.5ZM172.75 112.5H180.25V120H172.75V112.5ZM22.75 120H30.25V127.5H22.75V120ZM30.25 120H37.75V127.5H30.25V120ZM45.25 120H52.75V127.5H45.25V120ZM60.25 120H67.75V127.5H60.25V120ZM67.75 120H75.25V127.5H67.75V120ZM90.25 120H97.75V127.5H90.25V120ZM112.75 120H120.25V127.5H112.75V120ZM142.75 120H150.25V127.5H142.75V120ZM150.25 120H157.75V127.5H150.25V120ZM157.75 120H165.25V127.5H157.75V120ZM172.75 120H180.25V127.5H172.75V120ZM180.25 120H187.75V127.5H180.25V120ZM7.75 127.5H15.25V135H7.75V127.5ZM15.25 127.5H22.75V135H15.25V127.5ZM30.25 127.5H37.75V135H30.25V127.5ZM45.25 127.5H52.75V135H45.25V127.5ZM52.75 127.5H60.25V135H52.75V127.5ZM75.25 127.5H82.75V135H75.25V127.5ZM82.75 127.5H90.25V135H82.75V127.5ZM97.75 127.5H105.25V135H97.75V127.5ZM120.25 127.5H127.75V135H120.25V127.5ZM127.75 127.5H135.25V135H127.75V127.5ZM135.25 127.5H142.75V135H135.25V127.5ZM142.75 127.5H150.25V135H142.75V127.5ZM150.25 127.5H157.75V135H150.25V127.5ZM157.75 127.5H165.25V135H157.75V127.5ZM165.25 127.5H172.75V135H165.25V127.5ZM172.75 127.5H180.25V135H172.75V127.5ZM67.75 135H75.25V142.5H67.75V135ZM82.75 135H90.25V142.5H82.75V135ZM112.75 135H120.25V142.5H112.75V135ZM127.75 135H135.25V142.5H127.75V135ZM157.75 135H165.25V142.5H157.75V135ZM7.75 142.5H15.25V150H7.75V142.5ZM15.25 142.5H22.75V150H15.25V142.5ZM22.75 142.5H30.25V150H22.75V142.5ZM30.25 142.5H37.75V150H30.25V142.5ZM37.75 142.5H45.25V150H37.75V142.5ZM45.25 142.5H52.75V150H45.25V142.5ZM52.75 142.5H60.25V150H52.75V142.5ZM75.25 142.5H82.75V150H75.25V142.5ZM112.75 142.5H120.25V150H112.75V142.5ZM127.75 142.5H135.25V150H127.75V142.5ZM142.75 142.5H150.25V150H142.75V142.5ZM157.75 142.5H165.25V150H157.75V142.5ZM7.75 150H15.25V157.5H7.75V150ZM52.75 150H60.25V157.5H52.75V150ZM67.75 150H75.25V157.5H67.75V150ZM82.75 150H90.25V157.5H82.75V150ZM97.75 150H105.25V157.5H97.75V150ZM112.75 150H120.25V157.5H112.75V150ZM127.75 150H135.25V157.5H127.75V150ZM157.75 150H165.25V157.5H157.75V150ZM165.25 150H172.75V157.5H165.25V150ZM172.75 150H180.25V157.5H172.75V150ZM180.25 150H187.75V157.5H180.25V150ZM187.75 150H195.25V157.5H187.75V150ZM7.75 157.5H15.25V165H7.75V157.5ZM22.75 157.5H30.25V165H22.75V157.5ZM30.25 157.5H37.75V165H30.25V157.5ZM37.75 157.5H45.25V165H37.75V157.5ZM52.75 157.5H60.25V165H52.75V157.5ZM67.75 157.5H75.25V165H67.75V157.5ZM82.75 157.5H90.25V165H82.75V157.5ZM90.25 157.5H97.75V165H90.25V157.5ZM105.25 157.5H112.75V165H105.25V157.5ZM112.75 157.5H120.25V165H112.75V157.5ZM127.75 157.5H135.25V165H127.75V157.5ZM135.25 157.5H142.75V165H135.25V157.5ZM142.75 157.5H150.25V165H142.75V157.5ZM150.25 157.5H157.75V165H150.25V157.5ZM157.75 157.5H165.25V165H157.75V157.5ZM165.25 157.5H172.75V165H165.25V157.5ZM172.75 157.5H180.25V165H172.75V157.5ZM180.25 157.5H187.75V165H180.25V157.5ZM187.75 157.5H195.25V165H187.75V157.5ZM7.75 165H15.25V172.5H7.75V165ZM22.75 165H30.25V172.5H22.75V165ZM30.25 165H37.75V172.5H30.25V165ZM37.75 165H45.25V172.5H37.75V165ZM52.75 165H60.25V172.5H52.75V165ZM75.25 165H82.75V172.5H75.25V165ZM97.75 165H105.25V172.5H97.75V165ZM112.75 165H120.25V172.5H112.75V165ZM120.25 165H127.75V172.5H120.25V165ZM127.75 165H135.25V172.5H127.75V165ZM142.75 165H150.25V172.5H142.75V165ZM150.25 165H157.75V172.5H150.25V165ZM172.75 165H180.25V172.5H172.75V165ZM180.25 165H187.75V172.5H180.25V165ZM187.75 165H195.25V172.5H187.75V165ZM7.75 172.5H15.25V180H7.75V172.5ZM22.75 172.5H30.25V180H22.75V172.5ZM30.25 172.5H37.75V180H30.25V172.5ZM37.75 172.5H45.25V180H37.75V172.5ZM52.75 172.5H60.25V180H52.75V172.5ZM75.25 172.5H82.75V180H75.25V172.5ZM90.25 172.5H97.75V180H90.25V172.5ZM97.75 172.5H105.25V180H97.75V172.5ZM105.25 172.5H112.75V180H105.25V172.5ZM112.75 172.5H120.25V180H112.75V172.5ZM127.75 172.5H135.25V180H127.75V172.5ZM135.25 172.5H142.75V180H135.25V172.5ZM142.75 172.5H150.25V180H142.75V172.5ZM165.25 172.5H172.75V180H165.25V172.5ZM180.25 172.5H187.75V180H180.25V172.5ZM7.75 180H15.25V187.5H7.75V180ZM52.75 180H60.25V187.5H52.75V180ZM67.75 180H75.25V187.5H67.75V180ZM90.25 180H97.75V187.5H90.25V180ZM105.25 180H112.75V187.5H105.25V180ZM120.25 180H127.75V187.5H120.25V180ZM142.75 180H150.25V187.5H142.75V180ZM150.25 180H157.75V187.5H150.25V180ZM157.75 180H165.25V187.5H157.75V180ZM165.25 180H172.75V187.5H165.25V180ZM172.75 180H180.25V187.5H172.75V180ZM180.25 180H187.75V187.5H180.25V180ZM7.75 187.5H15.25V195H7.75V187.5ZM15.25 187.5H22.75V195H15.25V187.5ZM22.75 187.5H30.25V195H22.75V187.5ZM30.25 187.5H37.75V195H30.25V187.5ZM37.75 187.5H45.25V195H37.75V187.5ZM45.25 187.5H52.75V195H45.25V187.5ZM52.75 187.5H60.25V195H52.75V187.5ZM67.75 187.5H75.25V195H67.75V187.5ZM97.75 187.5H105.25V195H97.75V187.5ZM105.25 187.5H112.75V195H105.25V187.5ZM120.25 187.5H127.75V195H120.25V187.5ZM172.75 187.5H180.25V195H172.75V187.5ZM180.25 187.5H187.75V195H180.25V187.5ZM187.75 187.5H195.25V195H187.75V187.5Z" fill="#ECEBE8"/>
<rect width="52.5" height="52.5" transform="translate(75.25 75)" fill="#1C1B17"/>
<path d="M121.135 112.712C121.151 112.713 121.166 112.715 121.182 112.717L121.187 112.722C121.203 112.724 121.222 112.726 121.236 112.726V120.241H115.523V119.511C116.349 118.873 116.882 117.874 116.882 116.752C116.882 116.21 116.759 115.699 116.538 115.241C116.3 114.751 115.951 114.324 115.523 113.993C115.065 113.638 114.513 113.431 113.959 113.224C113.522 113.06 113.084 112.896 112.69 112.658C111.821 112.135 111.055 111.443 110.471 110.613C109.998 109.937 109.635 109.175 109.416 108.356C109.28 107.854 109.197 107.328 109.174 106.789H103.119L98.574 102.261L98.0112 102.821L98.0182 102.833L100.559 107.145L96.7371 110.953C98.3432 112.551 98.3432 115.145 96.7371 116.745L95.7669 117.712L92.4699 114.427C90.7814 112.748 90.7814 110.021 92.4699 108.339H88.5159V120.239H81.7642V119.366C81.7642 119.366 82.8004 118.549 83.0335 118.015C83.2148 117.597 83.3161 117.137 83.3232 116.654V96.1279C83.3137 93.9695 84.0461 91.8627 85.3579 90.1477C85.4874 89.9788 85.624 89.8146 85.7676 89.6527C85.7892 89.6266 85.8118 89.6015 85.8341 89.5767C85.8458 89.5637 85.8575 89.5507 85.8689 89.5377L84.9269 88.5993C84.5101 87.8908 84.2722 87.065 84.2722 86.1852C84.2722 84.5593 85.087 83.1212 86.3328 82.2578C86.3352 83.5059 86.8203 84.6438 87.6092 85.4907C87.9413 85.8473 88.3275 86.1547 88.7561 86.3987C89.0882 86.5863 89.4414 86.7365 89.8158 86.8421C89.6628 86.9148 89.5168 86.9922 89.3708 87.0767C86.9475 88.4679 85.6287 91.3794 86.1515 94.1009C86.1868 94.2768 86.2292 94.4551 86.2763 94.6264L88.0661 92.8457L88.3204 93.0991C87.1688 95.349 87.4302 98.176 88.9657 100.175L90.155 98.9925L91.3065 97.8429L92.1944 96.9608L92.7572 96.4L94.4952 98.1315C94.4975 98.1338 94.4999 98.1385 94.4999 98.1385L94.7378 98.3755C94.7401 98.3755 94.7425 98.3778 94.7448 98.3801C95.0463 98.6265 95.4348 98.7743 95.854 98.7743C96.2732 98.7743 96.6594 98.6265 96.9609 98.3848L99.5466 95.8088L98.4469 92.766L99.9423 91.2668H111.498C111.557 91.2714 111.616 91.2749 111.674 91.2784C111.734 91.2819 111.794 91.2855 111.854 91.2903C113.448 91.4076 114.908 92.3108 115.794 93.627C115.829 93.6809 116.072 94.373 116.072 94.373H119.889C119.889 96.0036 119.109 97.4581 117.894 98.3919C117.492 98.7016 117.042 98.9526 116.557 99.1356V107.647C116.557 107.76 116.561 107.872 116.568 107.985C116.733 110.315 118.601 112.349 120.956 112.689C120.991 112.693 121.025 112.698 121.058 112.702C121.067 112.703 121.076 112.704 121.085 112.705C121.101 112.708 121.118 112.71 121.135 112.712Z" fill="#ECEBE8"/>
<path d="M97.1893 85.9271C97.1893 86.1524 97.1751 86.3729 97.1422 86.5887L96.4239 87.3043C96.4239 87.3043 96.4051 87.2926 96.3956 87.2855C96.349 87.2545 96.3023 87.2248 96.2547 87.1945L96.2025 87.1612C96.1366 87.119 96.0707 87.0814 96.0048 87.0439C95.9906 87.0369 95.9771 87.0292 95.9635 87.0216C95.95 87.014 95.9364 87.0063 95.9223 86.9993C95.8069 86.9336 95.6868 86.8726 95.5667 86.8163L95.4607 86.767C95.4442 86.76 95.4277 86.7527 95.4113 86.7454C95.3783 86.7308 95.3453 86.7162 95.3123 86.7037C95.0627 86.5981 94.8037 86.5066 94.5399 86.4339C94.5093 86.4245 94.4787 86.4151 94.4481 86.4081H94.4457C94.2126 86.3447 93.9724 86.2955 93.7298 86.2579C93.7642 86.2374 93.7973 86.2144 93.83 86.1916C93.8422 86.1831 93.8543 86.1747 93.8664 86.1664C94.9991 85.3805 95.7763 84.123 95.9082 82.6778C96.2944 83.0931 96.6076 83.5764 96.8266 84.1113C97.0574 84.672 97.1846 85.2843 97.1846 85.9271H97.1893Z" fill="#ECEBE8"/>
<path d="M107.754 108.339H101.819C102.034 109.203 102.424 110.003 102.954 110.709C103.237 111.088 103.58 111.383 103.925 111.68C104.175 111.894 104.426 112.11 104.655 112.358C105.253 113.008 105.651 113.846 105.651 114.704V116.593C105.651 117.381 105.361 118.111 104.876 118.688C104.655 118.955 104.391 119.19 104.092 119.385V120.236H110.323V112.928C109.051 111.727 108.133 110.136 107.754 108.337V108.339Z" fill="#ECEBE8"/>
<path d="M94.62 92.8176H96.5464C96.5464 91.9612 95.8493 91.2644 94.9874 91.2644H93.1835V91.3864C93.1835 92.1747 93.8264 92.8152 94.6177 92.8152L94.62 92.8176Z" fill="#ECEBE8"/>
</svg>
