<svg width="329" height="2" viewBox="0 0 329 2" fill="none" xmlns="http://www.w3.org/2000/svg">
<mask id="path-1-inside-1_5489_14711" fill="white">
<path d="M0 0.5H329V1.5H0V0.5Z"/>
</mask>
<path d="M329 0.5V-0.25H327.505V0.5V1.25H329V0.5ZM325.511 0.5V-0.25H322.52V0.5V1.25H325.511V0.5ZM320.526 0.5V-0.25H317.535V0.5V1.25H320.526V0.5ZM315.541 0.5V-0.25H312.55V0.5V1.25H315.541V0.5ZM310.556 0.5V-0.25H307.565V0.5V1.25H310.556V0.5ZM305.571 0.5V-0.25H302.58V0.5V1.25H305.571V0.5ZM300.586 0.5V-0.25H297.595V0.5V1.25H300.586V0.5ZM295.602 0.5V-0.25H292.611V0.5V1.25H295.602V0.5ZM290.617 0.5V-0.25H287.626V0.5V1.25H290.617V0.5ZM285.632 0.5V-0.25H282.641V0.5V1.25H285.632V0.5ZM280.647 0.5V-0.25H277.656V0.5V1.25H280.647V0.5ZM275.662 0.5V-0.25H272.671V0.5V1.25H275.662V0.5ZM270.677 0.5V-0.25H267.686V0.5V1.25H270.677V0.5ZM265.692 0.5V-0.25H262.702V0.5V1.25H265.692V0.5ZM260.708 0.5V-0.25H257.717V0.5V1.25H260.708V0.5ZM255.723 0.5V-0.25H252.732V0.5V1.25H255.723V0.5ZM250.738 0.5V-0.25H247.747V0.5V1.25H250.738V0.5ZM245.753 0.5V-0.25H242.762V0.5V1.25H245.753V0.5ZM240.768 0.5V-0.25H237.777V0.5V1.25H240.768V0.5ZM235.783 0.5V-0.25H232.792V0.5V1.25H235.783V0.5ZM230.798 0.5V-0.25H227.808V0.5V1.25H230.798V0.5ZM225.814 0.5V-0.25H222.823V0.5V1.25H225.814V0.5ZM220.829 0.5V-0.25H217.838V0.5V1.25H220.829V0.5ZM215.844 0.5V-0.25H212.853V0.5V1.25H215.844V0.5ZM210.859 0.5V-0.25H207.868V0.5V1.25H210.859V0.5ZM205.874 0.5V-0.25H202.883V0.5V1.25H205.874V0.5ZM200.889 0.5V-0.25H197.898V0.5V1.25H200.889V0.5ZM195.905 0.5V-0.25H192.914V0.5V1.25H195.905V0.5ZM190.92 0.5V-0.25H187.929V0.5V1.25H190.92V0.5ZM185.935 0.5V-0.25H182.944V0.5V1.25H185.935V0.5ZM180.95 0.5V-0.25H177.959V0.5V1.25H180.95V0.5ZM175.965 0.5V-0.25H172.974V0.5V1.25H175.965V0.5ZM170.98 0.5V-0.25H167.989V0.5V1.25H170.98V0.5ZM165.995 0.5V-0.25H163.005V0.5V1.25H165.995V0.5ZM161.011 0.5V-0.25H158.02V0.5V1.25H161.011V0.5ZM156.026 0.5V-0.25H153.035V0.5V1.25H156.026V0.5ZM151.041 0.5V-0.25H148.05V0.5V1.25H151.041V0.5ZM146.056 0.5V-0.25H143.065V0.5V1.25H146.056V0.5ZM141.071 0.5V-0.25H138.08V0.5V1.25H141.071V0.5ZM136.086 0.5V-0.25H133.095V0.5V1.25H136.086V0.5ZM131.102 0.5V-0.25H128.111V0.5V1.25H131.102V0.5ZM126.117 0.5V-0.25H123.126V0.5V1.25H126.117V0.5ZM121.132 0.5V-0.25H118.141V0.5V1.25H121.132V0.5ZM116.147 0.5V-0.25H113.156V0.5V1.25H116.147V0.5ZM111.162 0.5V-0.25H108.171V0.5V1.25H111.162V0.5ZM106.177 0.5V-0.25H103.186V0.5V1.25H106.177V0.5ZM101.192 0.5V-0.25H98.2015V0.5V1.25H101.192V0.5ZM96.2076 0.5V-0.25H93.2167V0.5V1.25H96.2076V0.5ZM91.2227 0.5V-0.25H88.2318V0.5V1.25H91.2227V0.5ZM86.2379 0.5V-0.25H83.247V0.5V1.25H86.2379V0.5ZM81.2531 0.5V-0.25H78.2621V0.5V1.25H81.2531V0.5ZM76.2682 0.5V-0.25H73.2773V0.5V1.25H76.2682V0.5ZM71.2834 0.5V-0.25H68.2925V0.5V1.25H71.2834V0.5ZM66.2985 0.5V-0.25H63.3076V0.5V1.25H66.2985V0.5ZM61.3137 0.5V-0.25H58.3228V0.5V1.25H61.3137V0.5ZM56.3289 0.5V-0.25H53.3379V0.5V1.25H56.3289V0.5ZM51.344 0.5V-0.25H48.3531V0.5V1.25H51.344V0.5ZM46.3592 0.5V-0.25H43.3683V0.5V1.25H46.3592V0.5ZM41.3744 0.5V-0.25H38.3835V0.5V1.25H41.3744V0.5ZM36.3895 0.5V-0.25H33.3986V0.5V1.25H36.3895V0.5ZM31.4047 0.5V-0.25H28.4138V0.5V1.25H31.4047V0.5ZM26.4199 0.5V-0.25H23.429V0.5V1.25H26.4199V0.5ZM21.435 0.5V-0.25H18.4441V0.5V1.25H21.435V0.5ZM16.4502 0.5V-0.25H13.4593V0.5V1.25H16.4502V0.5ZM11.4654 0.5V-0.25H8.47445V0.5V1.25H11.4654V0.5ZM6.48053 0.5V-0.25H3.48963V0.5V1.25H6.48053V0.5ZM1.49569 0.5V-0.25H0V0.5V1.25H1.49569V0.5ZM329 0.5V-1H327.505V0.5V2H329V0.5ZM325.511 0.5V-1H322.52V0.5V2H325.511V0.5ZM320.526 0.5V-1H317.535V0.5V2H320.526V0.5ZM315.541 0.5V-1H312.55V0.5V2H315.541V0.5ZM310.556 0.5V-1H307.565V0.5V2H310.556V0.5ZM305.571 0.5V-1H302.58V0.5V2H305.571V0.5ZM300.586 0.5V-1H297.595V0.5V2H300.586V0.5ZM295.602 0.5V-1H292.611V0.5V2H295.602V0.5ZM290.617 0.5V-1H287.626V0.5V2H290.617V0.5ZM285.632 0.5V-1H282.641V0.5V2H285.632V0.5ZM280.647 0.5V-1H277.656V0.5V2H280.647V0.5ZM275.662 0.5V-1H272.671V0.5V2H275.662V0.5ZM270.677 0.5V-1H267.686V0.5V2H270.677V0.5ZM265.692 0.5V-1H262.702V0.5V2H265.692V0.5ZM260.708 0.5V-1H257.717V0.5V2H260.708V0.5ZM255.723 0.5V-1H252.732V0.5V2H255.723V0.5ZM250.738 0.5V-1H247.747V0.5V2H250.738V0.5ZM245.753 0.5V-1H242.762V0.5V2H245.753V0.5ZM240.768 0.5V-1H237.777V0.5V2H240.768V0.5ZM235.783 0.5V-1H232.792V0.5V2H235.783V0.5ZM230.798 0.5V-1H227.808V0.5V2H230.798V0.5ZM225.814 0.5V-1H222.823V0.5V2H225.814V0.5ZM220.829 0.5V-1H217.838V0.5V2H220.829V0.5ZM215.844 0.5V-1H212.853V0.5V2H215.844V0.5ZM210.859 0.5V-1H207.868V0.5V2H210.859V0.5ZM205.874 0.5V-1H202.883V0.5V2H205.874V0.5ZM200.889 0.5V-1H197.898V0.5V2H200.889V0.5ZM195.905 0.5V-1H192.914V0.5V2H195.905V0.5ZM190.92 0.5V-1H187.929V0.5V2H190.92V0.5ZM185.935 0.5V-1H182.944V0.5V2H185.935V0.5ZM180.95 0.5V-1H177.959V0.5V2H180.95V0.5ZM175.965 0.5V-1H172.974V0.5V2H175.965V0.5ZM170.98 0.5V-1H167.989V0.5V2H170.98V0.5ZM165.995 0.5V-1H163.005V0.5V2H165.995V0.5ZM161.011 0.5V-1H158.02V0.5V2H161.011V0.5ZM156.026 0.5V-1H153.035V0.5V2H156.026V0.5ZM151.041 0.5V-1H148.05V0.5V2H151.041V0.5ZM146.056 0.5V-1H143.065V0.5V2H146.056V0.5ZM141.071 0.5V-1H138.08V0.5V2H141.071V0.5ZM136.086 0.5V-1H133.095V0.5V2H136.086V0.5ZM131.102 0.5V-1H128.111V0.5V2H131.102V0.5ZM126.117 0.5V-1H123.126V0.5V2H126.117V0.5ZM121.132 0.5V-1H118.141V0.5V2H121.132V0.5ZM116.147 0.5V-1H113.156V0.5V2H116.147V0.5ZM111.162 0.5V-1H108.171V0.5V2H111.162V0.5ZM106.177 0.5V-1H103.186V0.5V2H106.177V0.5ZM101.192 0.5V-1H98.2015V0.5V2H101.192V0.5ZM96.2076 0.5V-1H93.2167V0.5V2H96.2076V0.5ZM91.2227 0.5V-1H88.2318V0.5V2H91.2227V0.5ZM86.2379 0.5V-1H83.247V0.5V2H86.2379V0.5ZM81.2531 0.5V-1H78.2621V0.5V2H81.2531V0.5ZM76.2682 0.5V-1H73.2773V0.5V2H76.2682V0.5ZM71.2834 0.5V-1H68.2925V0.5V2H71.2834V0.5ZM66.2985 0.5V-1H63.3076V0.5V2H66.2985V0.5ZM61.3137 0.5V-1H58.3228V0.5V2H61.3137V0.5ZM56.3289 0.5V-1H53.3379V0.5V2H56.3289V0.5ZM51.344 0.5V-1H48.3531V0.5V2H51.344V0.5ZM46.3592 0.5V-1H43.3683V0.5V2H46.3592V0.5ZM41.3744 0.5V-1H38.3835V0.5V2H41.3744V0.5ZM36.3895 0.5V-1H33.3986V0.5V2H36.3895V0.5ZM31.4047 0.5V-1H28.4138V0.5V2H31.4047V0.5ZM26.4199 0.5V-1H23.429V0.5V2H26.4199V0.5ZM21.435 0.5V-1H18.4441V0.5V2H21.435V0.5ZM16.4502 0.5V-1H13.4593V0.5V2H16.4502V0.5ZM11.4654 0.5V-1H8.47445V0.5V2H11.4654V0.5ZM6.48053 0.5V-1H3.48963V0.5V2H6.48053V0.5ZM1.49569 0.5V-1H0V0.5V2H1.49569V0.5Z" fill="#3F3D35" mask="url(#path-1-inside-1_5489_14711)"/>
</svg>
